<svg aria-hidden="true" style="position: absolute; width: 0; height: 0; overflow: hidden;" version="1.1" xmlns="http://www.w3.org/2000/svg" xmlns:xlink="http://www.w3.org/1999/xlink">
    <defs>
        <symbol id="icon-arrow" viewBox="0 0 32 32">
            <title>עלייה/ירידה</title>
            <path d="M27.414 12.586l-10-10c-0.781-0.781-2.047-0.781-2.828 0l-10 10c-0.781 0.781-0.781 2.047 0 2.828s2.047 0.781 2.828 0l6.586-6.586v19.172c0 1.105 0.895 2 2 2s2-0.895 2-2v-19.172l6.586 6.586c0.39 0.39 0.902 0.586 1.414 0.586s1.024-0.195 1.414-0.586c0.781-0.781 0.781-2.047 0-2.828z"></path>
        </symbol>


        <symbol id="icon-question-mark" viewBox="0 0 20 20">
            <title>סימן שאלה</title>
            <path d="M10 0.4c-5.302 0-9.6 4.298-9.6 9.6s4.298 9.6 9.6 9.6c5.301 0 9.6-4.298 9.6-9.601 0-5.301-4.299-9.599-9.6-9.599zM9.849 15.599h-0.051c-0.782-0.023-1.334-0.6-1.311-1.371 0.022-0.758 0.587-1.309 1.343-1.309l0.046 0.002c0.804 0.023 1.35 0.594 1.327 1.387-0.023 0.76-0.578 1.291-1.354 1.291zM13.14 9.068c-0.184 0.26-0.588 0.586-1.098 0.983l-0.562 0.387c-0.308 0.24-0.494 0.467-0.563 0.688-0.056 0.174-0.082 0.221-0.087 0.576v0.090h-2.145l0.006-0.182c0.027-0.744 0.045-1.184 0.354-1.547 0.485-0.568 1.555-1.258 1.6-1.287 0.154-0.115 0.283-0.246 0.379-0.387 0.225-0.311 0.324-0.555 0.324-0.793 0-0.334-0.098-0.643-0.293-0.916-0.188-0.266-0.545-0.398-1.061-0.398-0.512 0-0.863 0.162-1.072 0.496-0.216 0.341-0.325 0.7-0.325 1.067v0.092h-2.211l0.004-0.096c0.057-1.353 0.541-2.328 1.435-2.897 0.563-0.361 1.264-0.544 2.081-0.544 1.068 0 1.972 0.26 2.682 0.772 0.721 0.519 1.086 1.297 1.086 2.311-0.001 0.567-0.18 1.1-0.534 1.585z"></path>
        </symbol>

        <symbol id="icon-cog" viewBox="0 0 32 32">
            <title>הגדרות</title>
            <path d="M29.181 19.070c-1.679-2.908-0.669-6.634 2.255-8.328l-3.145-5.447c-0.898 0.527-1.943 0.829-3.058 0.829-3.361 0-6.085-2.742-6.085-6.125h-6.289c0.008 1.044-0.252 2.103-0.811 3.070-1.679 2.908-5.411 3.897-8.339 2.211l-3.144 5.447c0.905 0.515 1.689 1.268 2.246 2.234 1.676 2.903 0.672 6.623-2.241 8.319l3.145 5.447c0.895-0.522 1.935-0.82 3.044-0.82 3.35 0 6.067 2.725 6.084 6.092h6.289c-0.003-1.034 0.259-2.080 0.811-3.038 1.676-2.903 5.399-3.894 8.325-2.219l3.145-5.447c-0.899-0.515-1.678-1.266-2.232-2.226zM16 22.479c-3.578 0-6.479-2.901-6.479-6.479s2.901-6.479 6.479-6.479c3.578 0 6.479 2.901 6.479 6.479s-2.901 6.479-6.479 6.479z"></path>
        </symbol>

        <symbol id="icon-arrow_drop_down" viewBox="0 0 24 24">
            <title>חץ למטה</title>
            <path d="M6.984 9.984h10.031l-5.016 5.016z"></path>
        </symbol>

        <symbol id="icon-circle-down" viewBox="0 0 32 32">
            <title>חץ מעוגל למטה</title>
            <path d="M32 16c0-8.837-7.163-16-16-16s-16 7.163-16 16 7.163 16 16 16 16-7.163 16-16zM3 16c0-7.18 5.82-13 13-13s13 5.82 13 13-5.82 13-13 13-13-5.82-13-13z"></path>
            <path d="M9.914 11.086l-2.829 2.829 8.914 8.914 8.914-8.914-2.828-2.828-6.086 6.086z"></path>
        </symbol>

        <symbol id="icon-cross" viewBox="0 0 20 20">
            <path d="M10 8.586l-7.071-7.071-1.414 1.414 7.071 7.071-7.071 7.071 1.414 1.414 7.071-7.071 7.071 7.071 1.414-1.414-7.071-7.071 7.071-7.071-1.414-1.414-7.071 7.071z"></path>
        </symbol>
     </defs>
</svg>
